<?xml version="1.0" encoding="UTF-8"?>
<svg version="1.1" xmlns="http://www.w3.org/2000/svg" width="399" height="113">
<path d="M0 0 C131.67 0 263.34 0 399 0 C399 37.29 399 74.58 399 113 C267.33 113 135.66 113 0 113 C0 75.71 0 38.42 0 0 Z " fill="#FBFBFA" transform="translate(0,0)"/>
<path d="M0 0 C62.04 0 124.08 0 188 0 C188 29.37 188 58.74 188 89 C125.96 89 63.92 89 0 89 C0 59.63 0 30.26 0 0 Z " fill="#010001" transform="translate(12,13)"/>
<path d="M0 0 C131.67 0 263.34 0 399 0 C399 37.29 399 74.58 399 113 C267.33 113 135.66 113 0 113 C0 75.71 0 38.42 0 0 Z M4 6 C4 39.99 4 73.98 4 109 C133.36 109 262.72 109 396 109 C396 75.01 396 41.02 396 6 C266.64 6 137.28 6 4 6 Z " fill="#050505" transform="translate(0,0)"/>
<path d="M0 0 C131.67 0 263.34 0 399 0 C399 0.99 399 1.98 399 3 C267.66 3 136.32 3 1 3 C1 38.97 1 74.94 1 112 C132.34 112 263.68 112 399 112 C399 112.33 399 112.66 399 113 C267.33 113 135.66 113 0 113 C0 75.71 0 38.42 0 0 Z " fill="#D6D6D6" transform="translate(0,0)"/>
<path d="M0 0 C4.35699098 2.46622131 7.04335342 5.33670683 9.3125 9.875 C9.90307744 15.55362925 9.60620905 20.04422672 6.3125 24.875 C1.88223611 29.45418032 -1.34094246 30.72360919 -7.5625 31.125 C-11.5952943 31.0575369 -14.27423463 30.12465217 -17.6875 27.875 C-21.59483047 23.75059561 -23.43629023 20.13588796 -24.0625 14.5 C-23.47389171 8.81011982 -21.28553543 5.35610601 -17.125 1.5 C-11.65328897 -2.14780735 -6.05342054 -1.84680627 0 0 Z " fill="#0A0607" transform="translate(298.6875,42.125)"/>
<path d="M0 0 C3.47145467 1.93600357 5.16765705 3.44871523 7.25 6.8125 C8 9.625 8 9.625 8.25 11.8125 C5.21760133 12.04136028 2.27416379 12.18103609 -0.75 11.8125 C-2.4375 9.8125 -2.4375 9.8125 -3.75 7.8125 C-6.87242157 7.35714685 -8.81836961 7.31563046 -11.625 8.8125 C-13.43755546 12.03482082 -13.28166222 15.21067565 -12.75 18.8125 C-11.87129086 21.025481 -11.87129086 21.025481 -9.75 21.8125 C-6.17243314 21.81332535 -6.17243314 21.81332535 -2.75 20.8125 C-2.09 19.8225 -1.43 18.8325 -0.75 17.8125 C1.4140625 17.51953125 1.4140625 17.51953125 3.875 17.625 C5.10089844 17.66560547 5.10089844 17.66560547 6.3515625 17.70703125 C6.97804687 17.74183594 7.60453125 17.77664062 8.25 17.8125 C7.81489218 22.743722 5.70118597 25.36131403 2.25 28.8125 C-2.74557087 31.25477909 -8.35891957 31.9612027 -13.67578125 30.16015625 C-17.50233544 28.25097611 -20.14185439 25.85034442 -22.08984375 21.9375 C-23.8555194 16.25390501 -23.63575621 10.76116365 -21.1875 5.375 C-14.82680205 -1.31188759 -8.7758603 -2.77902243 0 0 Z " fill="#0B090A" transform="translate(238.75,42.1875)"/>
<path d="M0 0 C2.64 0 5.28 0 8 0 C8 3.63 8 7.26 8 11 C11.3 11 14.6 11 18 11 C18 7.37 18 3.74 18 0 C20.64 0 23.28 0 26 0 C26 9.9 26 19.8 26 30 C23.36 30 20.72 30 18 30 C18 26.37 18 22.74 18 19 C14.7 19 11.4 19 8 19 C8 22.63 8 26.26 8 30 C5.36 30 2.72 30 0 30 C0 20.1 0 10.2 0 0 Z " fill="#000002" transform="translate(342,42)"/>
<path d="M0 0 C15 0 15 0 20 3 C22.45665197 6.68497796 22.70086491 9.71971786 22 14 C20.20636089 16.8100346 18.98119065 18.50940468 16 20 C14.12620395 20.07033769 12.24998898 20.0843022 10.375 20.0625 C9.37210938 20.05347656 8.36921875 20.04445313 7.3359375 20.03515625 C6.56507813 20.02355469 5.79421875 20.01195313 5 20 C5 23.3 5 26.6 5 30 C3.35 30 1.7 30 0 30 C0 20.1 0 10.2 0 0 Z " fill="#DCE7E5" transform="translate(141,42)"/>
<path d="M0 0 C3.18160493 1.51849326 5.81192521 3.22802884 8 6 C8.69165985 10.0462101 8.59670708 13.9434867 8 18 C5.47353559 21.48242391 4.04319535 22.65226822 0 24 C-4.41606264 24.59446997 -7.29799577 24.26738528 -10.9375 21.75 C-14.06871447 18.76789098 -14.61477246 16.26985601 -14.875 12 C-14.61477246 7.73014399 -14.06871447 5.23210902 -10.9375 2.25 C-7.26437723 -0.26553256 -4.44716886 -0.74119481 0 0 Z " fill="#040304" transform="translate(119,45)"/>
<path d="M0 0 C8.58 0 17.16 0 26 0 C26 2.64 26 5.28 26 8 C23.03 8 20.06 8 17 8 C17 15.26 17 22.52 17 30 C14.36 30 11.72 30 9 30 C9 22.74 9 15.48 9 8 C6.03 8 3.06 8 0 8 C0 5.36 0 2.72 0 0 Z " fill="#000000" transform="translate(311,42)"/>
<path d="M0 0 C4.42484878 2.21242439 7.19476657 4.94799616 10 9 C11.66619387 13.9985816 11.62822535 18.3137109 9.8125 23.1875 C7.16668433 27.29307604 4.70594492 30.43135169 0 32 C-5.66482316 32.49927255 -10.42318627 32.76914072 -15 29 C-19.51536967 25.12968314 -20.84335337 21.97374759 -21.3125 16.0625 C-21.14909323 10.62922491 -19.08257215 7.21789367 -15.5 3.1875 C-10.94243395 -0.80037029 -5.79717851 -0.65116514 0 0 Z M-14.66015625 7.890625 C-16.96530399 11.51972056 -16.93995128 14.9342688 -16.68359375 19.140625 C-15.74953974 23.04763948 -14.28221641 24.82907301 -11.00390625 27.07421875 C-7.78853884 28.55968089 -5.46428153 28.57738026 -2 28 C1.18160493 26.48150674 3.81192521 24.77197116 6 22 C6.69165985 17.9537899 6.59670708 14.0565133 6 10 C3.47353559 6.51757609 2.04319535 5.34773178 -2 4 C-7.46562275 3.26424309 -10.72615515 4.14395728 -14.66015625 7.890625 Z " fill="#E9EDE9" transform="translate(121,41)"/>
<path d="M0 0 C2.64 0 5.28 0 8 0 C8 7.26 8 14.52 8 22 C11.96 22 15.92 22 20 22 C20 24.64 20 27.28 20 30 C13.4 30 6.8 30 0 30 C0 20.1 0 10.2 0 0 Z " fill="#000000" transform="translate(252,42)"/>
<path d="M0 0 C2.74097764 2.74097764 2.72378174 5.1618108 2.9375 8.9375 C1.9475 8.9375 0.9575 8.9375 -0.0625 8.9375 C-0.43375 8.1125 -0.805 7.2875 -1.1875 6.4375 C-2.76918575 3.72000131 -2.76918575 3.72000131 -5.25390625 3.60546875 C-7.54098318 3.6233645 -9.78588443 3.72272495 -12.0625 3.9375 C-12.3925 5.5875 -12.7225 7.2375 -13.0625 8.9375 C-9.02037126 11.63225249 -4.81255951 13.24032716 -0.26953125 14.875 C1.9375 15.9375 1.9375 15.9375 3.9375 18.9375 C4.60842652 25.08765974 4.60842652 25.08765974 2.0625 28.3125 C-1.78905004 31.25780297 -4.75286823 31.33336458 -9.51171875 31.28515625 C-13.73254944 30.70988224 -15.29026279 29.13623524 -18.0625 25.9375 C-18.9375 23.125 -18.9375 23.125 -19.0625 20.9375 C-17.4125 20.9375 -15.7625 20.9375 -14.0625 20.9375 C-13.7325 22.5875 -13.4025 24.2375 -13.0625 25.9375 C-11.43759046 25.96448189 -9.81255367 25.98388757 -8.1875 26 C-7.28257813 26.01160156 -6.37765625 26.02320312 -5.4453125 26.03515625 C-3.0456415 26.09999257 -3.0456415 26.09999257 -1.0625 24.9375 C-1.0625 22.9575 -1.0625 20.9775 -1.0625 18.9375 C-1.79855469 18.75574219 -2.53460938 18.57398437 -3.29296875 18.38671875 C-13.32579902 15.80230408 -13.32579902 15.80230408 -17.0625 12.9375 C-18.67531328 9.71187344 -18.64156485 6.42567637 -18.0625 2.9375 C-13.71326939 -2.86147415 -6.28370037 -2.18005931 0 0 Z " fill="#EBEEEB" transform="translate(53.0625,42.0625)"/>
<path d="M0 0 C1.32 0 2.64 0 4 0 C4 4.29 4 8.58 4 13 C9.28 13 14.56 13 20 13 C20 8.71 20 4.42 20 0 C21.32 0 22.64 0 24 0 C24 9.9 24 19.8 24 30 C22.35 30 20.7 30 19 30 C19 25.71 19 21.42 19 17 C14.05 17 9.1 17 4 17 C4 21.29 4 25.58 4 30 C2.68 30 1.36 30 0 30 C0 20.1 0 10.2 0 0 Z " fill="#E8EFEB" transform="translate(67,42)"/>
<path d="M0 0 C2.64 0 5.28 0 8 0 C8 9.9 8 19.8 8 30 C5.36 30 2.72 30 0 30 C0 20.1 0 10.2 0 0 Z " fill="#000005" transform="translate(375,42)"/>
<path d="M0 0 C4.99268902 1.47931526 4.99268902 1.47931526 6.375 4 C7.13412409 10.83211679 7.13412409 10.83211679 4.75 14.5 C1.61186002 16.48198314 0.02626535 16.67064058 -3.625 16 C-6.94774404 13.54405875 -8.40118008 12.0743356 -9.25 8 C-8.11814245 2.56708374 -5.59993233 0 0 0 Z " fill="#F4F8F7" transform="translate(292.625,49)"/>
<path d="M0 0 C1.588125 -0.061875 3.17625 -0.12375 4.8125 -0.1875 C6.15248047 -0.23970703 6.15248047 -0.23970703 7.51953125 -0.29296875 C10 0 10 0 11.80078125 1.32421875 C13.65747311 3.91874907 13.38675552 5.90595582 13 9 C11.80078125 10.67578125 11.80078125 10.67578125 10 12 C7.51953125 12.29296875 7.51953125 12.29296875 4.8125 12.1875 C3.224375 12.125625 1.63625 12.06375 0 12 C0 8.04 0 4.08 0 0 Z " fill="#000208" transform="translate(146,46)"/>
<path d="M0 0 C1.32 0 2.64 0 4 0 C4 9.9 4 19.8 4 30 C2.68 30 1.36 30 0 30 C0 20.1 0 10.2 0 0 Z " fill="#E6F5FB" transform="translate(172,42)"/>
</svg>
